<svg xmlns="http://www.w3.org/2000/svg" viewBox="16 16 68 68" role="img" aria-label="별바다다이브 아이콘"><g transform="translate(18.00,19.42) scale(0.05456) translate(-90.00,-62.00)"><path d="M339.0,1168.6C318.4,1162.9 305.0,1144.1 306.3,1122.6C307.0,1109.8 322.3,1059.2 326.7,1055.0C330.4,1051.4 392.5,1011.9 420.5,995.3C502.9,946.3 542.3,931.0 670.0,897.9C804.3,863.1 858.7,846.2 932.6,816.5C956.1,807.0 955.9,807.0 958.0,816.4C958.6,819.1 964.2,838.4 970.6,859.4C988.1,917.3 997.6,948.9 1003.0,966.5C1026.5,1043.8 1046.4,1110.5 1047.6,1116.2C1054.5,1149.3 1022.5,1178.2 990.2,1168.1C981.7,1165.5 984.5,1167.4 870.0,1087.7C813.1,1048.1 762.9,1013.2 758.5,1010.1C754.1,1007.1 746.0,1001.4 740.5,997.5C696.3,966.0 659.6,965.9 614.5,997.2C602.8,1005.3 414.9,1136.0 392.0,1151.9C374.9,1163.8 369.9,1166.7 362.5,1168.6C356.4,1170.3 345.0,1170.2 339.0,1168.6ZM220.1,615.5C216.7,613.0 196.1,597.4 174.2,580.8C152.4,564.2 131.8,548.6 128.5,546.1C115.3,536.1 109.4,528.5 105.8,516.7C98.2,491.5 115.6,464.2 142.0,460.0C147.9,459.1 197.8,457.9 350.0,455.0C445.8,453.1 458.9,452.5 470.3,449.6C491.8,443.9 511.6,430.3 523.2,413.2C530.9,401.9 533.9,394.6 549.1,351.0C556.8,328.7 574.2,278.8 587.7,240.0C601.1,201.2 617.0,155.5 622.9,138.5C628.9,121.4 635.2,104.6 637.0,101.1C654.0,67.4 701.0,67.4 717.7,101.1C719.4,104.6 730.4,134.9 742.0,168.5C753.6,202.1 768.1,243.7 774.2,261.0C780.2,278.3 793.0,315.2 802.7,343.0C812.3,370.8 820.8,394.7 821.6,396.2C823.5,399.9 823.4,404.4 821.2,406.3C813.9,412.9 743.7,440.6 698.5,454.6C670.3,463.4 616.4,478.2 562.5,492.0C544.9,496.5 522.2,502.6 512.0,505.5C501.8,508.4 486.8,512.7 478.5,515.0C401.6,536.4 319.5,570.7 241.5,613.9C228.3,621.2 227.9,621.2 220.1,615.5Z" fill="#ff6600"/><path d="M365.0,923.6C365.0,922.3 367.0,914.5 369.5,906.3C388.6,842.8 395.9,819.8 397.6,817.9C398.6,816.7 407.4,811.9 417.0,807.3C471.2,781.2 526.8,762.0 610.0,740.6C727.5,710.5 770.7,698.0 824.0,678.8C930.8,640.3 1014.0,596.2 1114.5,524.6C1145.5,502.5 1150.7,498.5 1188.5,468.7C1200.7,459.0 1202.9,458.2 1212.2,459.9C1242.9,465.3 1259.9,500.4 1244.4,526.7C1241.9,531.0 1237.4,534.6 1190.0,571.0C1092.7,645.5 982.4,706.9 869.1,749.5C811.1,771.3 764.1,785.3 645.5,816.0C513.5,850.2 470.9,867.1 373.5,923.7C368.1,926.8 365.0,926.8 365.0,923.6ZM368.3,728.7C363.5,724.5 346.1,711.0 330.5,699.4C305.3,680.6 304.1,679.4 307.6,676.0C310.3,673.4 339.3,658.5 359.5,649.5C431.4,617.2 478.3,601.9 609.5,568.0C746.3,532.6 815.2,507.7 896.3,464.6C906.9,459.0 916.3,454.1 917.3,453.7C920.8,452.4 1054.8,455.6 1057.1,457.1C1059.6,458.6 1056.9,461.1 1039.4,473.2C964.6,525.3 883.3,566.8 793.5,599.0C747.0,615.7 702.5,628.7 615.5,651.0C506.8,678.9 453.6,696.4 393.3,724.1C373.8,733.1 373.3,733.2 368.3,728.7Z" fill="#0099ff"/></g></svg>
